<mxfile host="app.diagrams.net" modified="2024-08-02T10:36:43.796Z" agent="Mozilla/5.0 (Windows NT 10.0; Win64; x64) AppleWebKit/537.36 (KHTML, like Gecko) Chrome/126.0.0.0 Safari/537.36 Edg/126.0.0.0" etag="caKHaYoIwLH65KkUNSgL" version="24.6.5" type="github">
  <diagram name="第 1 页" id="QzxlT7l5MasSY4lt5d2k">
    <mxGraphModel dx="1113" dy="721" grid="1" gridSize="10" guides="1" tooltips="1" connect="1" arrows="1" fold="1" page="1" pageScale="1" pageWidth="827" pageHeight="1169" math="0" shadow="0">
      <root>
        <mxCell id="0" />
        <mxCell id="1" parent="0" />
        <mxCell id="0jdNLUvb2JqN4ZeFAd62-2" value="" style="shape=image;verticalLabelPosition=bottom;labelBackgroundColor=default;verticalAlign=top;aspect=fixed;imageAspect=0;image=data:image/png,iVBORw0KGgoAAAANSUhEUgAAArIAAAI1CAIAAAClro63AAAgAElEQVR4Ae2dP2gsyXq32x/GnsQgHBiBE2EcCGSwbiacrLKr5IDACE5mhQIHV+EJFkaZkgOCC2ZhE4UCwUVwE0XLBA4Uag0CsdFwomGjOdmE/amn/nR1V1VPz0xVT/95BLunp/qtt9563uquX9f0dCcpfxCAAAQgAAEIQGBJIIEDBCAAAQjEJvDDDz8k/EGgxQR++OEHcRQgC2KfDfAPAQhAIEUWtHhCJLSMALKA8xQEIACB5ghoWfCHP/zhB/4g0BoCf/jDH4QsQhY0dzqgJQhAAAJaFvzv//4vNCDQHgL/+7//iyxoTzqIBAIQGAoBZMFQMt21fiILupYx4oUABHpBAFnQizT2sBPIgh4mlS5BAALtJ4AsaH+OhhkhsmCYeafXEIDAjgkgC3acAJr3EEAWeMBQDAEIQCAmAWRBTLr43pwAsmBzdtSEAAQgsDEBZMHG6KgYlQCyICpenEMAAhBwE0AWuLlQumsCyIJdZ4D2IQCBQRJAFgwy7R3oNLKgA0kiRAhAoH8EkAX9y2k/eoQs6Ece6QUEILB7Avf392dnZ5eXl4vFYmU0yIKViDDYCQFkwU6w0ygEINArAs/Pz/v7+/oFO9PpdGX3kAUrEWGwEwLIgp1gp1EIQKBXBE5PT7UmuL6+rtM3ZEEdStg0TwBZ0DxzWoQABDpP4P39fTwev76+ip48PT2dnp5eX1/PZrOafUMW1ASFWcMEkAUNA6c5CECg2wReXl7Ozs7E2sDh4eHGnUEWbIyOilEJIAui4sU5BCDQNwJ7e3v6+4Krq6uNu4cs2BgdFaMSQBZExYtzCECg8wQWi8VkMtHdOD4+TpLk9PTULNR7628gC+qzwrJJAsiCJmnTFgQg0CUCs9nsy5cvYnlgPB6HDR1ZEJYn3kIRQBaEIokfCECgVwSm06n5fUHN3xfUR4AsqM8KyyYJIAuapE1bEIBAZwi8vLyIewj29/fv7u7qPKForb4hC9bCtTR+e7y5uLi4eVu/5rY1spaP1D0lRzeP2/prc31kQZuzQ2wQgEBzBB4eHs7Pz8/OzvTDiO6Xf8EFgegSsmDt1L7diJn5qGlhoBpOkqOjLITGA1gb1TYVkAXb0KMuBCDQBwLT6fTw8FBdCyb39/cN9ApZ4IMsJ+EL65L87fEiS1LjF+ui2cQOyNeDbpcjC7qdP6KHAAS2JzAej7UmuLq6irQ8UIoTWVACoj96ZYG2aHhDqZEdfHnRcE+XzSELdkGdNiEAgZ0SmE6nt7e3elVgOp2KVxzprw8aiA5Z4IPcNlkg4+n3NwdGMpAFBgw2IQCBvhOYTqeXl5d6baBJHVBCu2NZ8Pb2eLH8nlywODq6uHksXg0v77LTt9klDos09V1H2+WiZLkOn7WsMnBUuIFQTsBqp/pXT8gbutXki31W7v03C7jjkeHYwYh27PJafddBpqtTk9vG2EIWxKCKTwhAoKUE9HOLkyQ5Pj5u5vsCJ4tdygJjujvK/uQEqaffbL5XhdlddtoiSS4K4sGeAkVf7XI5Nd7IuwblvXuiYf2l/XLazhtbtnx0dKTb3NCtGVN21+DFxYUhibJWCuIkT5c7HhmOHYzZjsFSiqeL6r7LVlenJg8v0hayIBJY3EIAAm0hMJlM5vO5iOb6+loIAv0Nwq6i3J0sUDOPnm0zBNkMqKZnZZDPx9JgOYvbE55ZInDaU6YoKTmQ9xCW7uyXzatojARt4Va2bzr1t2M0mfVcSJlyL+1gtu+7Iu9NTTGyOJ+QBXG44hUCENg1gcVicXd3d3BwIJ5VvOtwyu3vTBY4JshibNKgPA3q+dG4JX/9qbEw4WmXhbb807XdnIy1tIhhz+TCZ6EZ1XipsMgi+xRMFqzsu+yNqV3scKKXIAuiI6YBCEBgJwTEywvEMvXp6elOYqhodFeyYOXUU2FgTZDC1p5Y7XK7RLBxlK8vC1YH0AJZsDpIwcJQXRXDJ+IuZEFEuLiGAAR2SEA8unhvb+/6+lp/ibDDeEpN70gWWDN7KSzftbEwK09cjkl9aWiX2yWmx8KUGUMWuG6OLHemTEJ99iCr36Oalp52VBiN/YssaAw1DUEAAhEJTCaT8/PzJEkeHh5EM9Pp1LyrIGLbG7nupCwoz9g1J7x0nd8sKGHiWEq3m7NLRDLschl6+ZbDgiBxJ9IzXdtN+Jquaelpxx1UxFJkQUS4uIYABBogsFgshCAQ3xdcXl420Oj2TXRSFogJLl/mrjnhtUAWLCM9ujDfbGD/JtOdVc90HbzvnnbcQUUsRRZEhItrCECgAQKTyUQIAnFr4Q4fRbBWZ3ckC+Rqej6zW0GXp37DwJq4gk+NWWOylZCrBcJljZUBo7N60+q12BO+7xXkdTANbCALGoBMExCAgIPAYrGYzWaOHauKZrPZ7fJPPHVgsVhcLv9eX19XVW3R/l3JAjnJ2brg7UY+0Mg7O9nzoywpzeCqCXMarj+JKllg1pZ5s53YJcK0VK7i3OgdS3a3l20on8VXN2zTd1W3hDMTSuVnTcUcyMiCmHTxDQEI+AlcXl5OJhP/fseexWJxfX09Go3E8sDOnz3gCLF20a5kgfqav/BkouypBfmLAcWcunwnUf7gQ/WMgaKeUKb6t3dvj+qBRbm/jElpntaYXOXSqTU7Opy4qruaky71stLyXYjL5xgVHs+kwzI3PLJArbvkP47cvu8qTI1TPFCiiNKMLcY2siAGVXxCAAIrCNzd3Zm3B66wVrtvb2/1if3g4KAr3xeo8Av/7k4WWM8wlEyNy3N13ZrtKTzk0LARvTEs9cMQj+QD/UzjuvP30quaHZeNG3Oi7cQuEWHZ5eq5jfLRiXocJZk+KmSm/MEnC9SyhoQkPG7bdxVmEbxJshxe8M/IguBIcQgBCKwgMJlMxBX/Tz/9tMI0TSeTiZ7+RcXDw8P7+/sdPrd4Zcx1DHYpC+RDC43nGxuXpzL40pP5s2cGey6sl48IltOsvI1PzKTmZGbP06IdT7lYvpAz7Y2atm1ju8Tt1g4os9OX95XCwCsLShhD9r0yNTJDsf5BFsQii18IQMBJYDqdiicKJEkyHo+dNmmaLhaL+/t78YzCvb29Fj54wBd5zfIdy4KaUfbETKgH1+Tv0xU96fgm3UAWbEKNOhCAwGYEFouF+fDBq6srnx/x8gJxuYgs8FGivBYB/9wvVwJcgqGW5z4aIQv6mFX6BIG2Evj8+bNcbV7+s7+/74tUPIpgNBpdXV3pLxF8xl0sZ7Wguaz5vgZQt1GiCsxcIAtMGmxDAAIRCZg3DGpxIH6M8Pr6KnSAXj+Yz+dtfkbh9piQBdszrO9BrBdko068Vzl7tbIcg/rFkfW99dsSWdDv/NI7CLSFwPPzs5YC5sbV8k+XHB4etiXiyHEgCyIDLrt/e7y5OFJaIBtw2e8TH9/yn2CWKwz1M7JgqJmn3xBokMD7+7u+zVArALGxv7+vS46Pj7v1SKJtECILtqFH3XgEkAXx2OIZAhDICMzn88PDQz332xsfXxyMx+OXl5dB8UIWDCrdHepsQ7Lg/f19wh8EINAjAvVncfM9RrYmSJJkf39/s6cgd+hUa4eKLLCZUNIGAg3JgsvLS+fpgEIIQKCjBA4ODuqcwr58+VKng/pOwzo++2GDLOhHHvvXC2RBnVMWNhCAQJlAHVnw9PRUrub/PJy7CsREgizo34Tajx41LQs+HmrGHwQg0GkC4smDK2XB+/u7fqeRXwzke7r+joN1pwRkwbrEsG+GQNOyoJle0QoEIBCPwOnpaZIk1bJgPp8L9ZBP+zW2BqUMkAXxhiietyGALNiGHnUhMEQCdWTBeDw+OTmpoQTKJsNRBsiCIR48XegzsqALWSJGCLSJQB1ZUBHvdDp1/iDj9vZWfLdyf39fUb03u5AFvUllzzqCLOhZQukOBKIT2FIWRI+vIw0gCzqSqMGFiSwYXMrpMAS2JIAs2BKgqI4sCIIRJ8EJIAuCI8UhBHpOAFkQJMHIgiAYcRKcALIgOFIcQqDnBJAFQRKMLAiCESfBCSALgiPFIQR6TgBZECTByIIgGHESnACyIDhSHEKg5wSQBUESjCwIghEnwQkgC4IjxSEEek4AWRAkwciCIBhxEpwAsiA4UhxCoOcEkAVBEqxlwZ///GfngxwohMBOCPz5z38WTxn74YcfxFBPgoz4khP9BsVSOR8hAIHOEUAWBEmZlgXlBz3yGQLtIIAsCHKk4wQC/SeALAiSY2RBO+Y+ovASQBYEOdLb7+Tt8ebi4uLmrf2R7jhCQHkTgCzwollnx5/+9CdxPn54eNjJWjGNQsBJ4OHhQYzMP/3pT2JE8yVCrSP77e3x4ujoSMmso6OLm8cuTLVvNyLmo2aFweOFIlX+t+FAaiU3M9oRqNrx7dIQWRCE/ng8FkfDdDoN4hAnEAhCYDqdipH58Y4S4RBZsBKsmjHKM1ySHF08rqzdiIEM0Q7nTUzQRzfNBtpaWdA2UI2Mjm0bQRZsS3BZH1kQBCNOghNAFqyLNNcERxf5+sBy8SCTCS25+PXOdut2N5C9EiOtW1BpG6hAvOO66Y0suL6+Pl3+ffnyRby8cTwe39/f65XVl5eXeCiRBfHY4nkbAsiC9ehpUWBfh4uFZ2SBEyiywImlo4W9kQXT6fTg4MBe9fOVHB8fCxlxenr68PCwZfqQBVsCpHokAsiCtcCqtXCnKHB4ym5by29ASJx3IPhmTLtclCzbzu5sUOeuo8INhFq4qN3iXy1XNnSrO7e8p6Lou9SCNjU27FaNnWLTZ2KXi5IVHHL/4jYQHbJKwvqghMv6Oa0dYR5rN7Z6IwvSNJ1Op/v7+3p01Nw4OzvbPlXIgu0Z4iEGAWTBOlTFfFT3iwJz5j4ybk9MjC8f0jS1pz0Rkl0up8MbeddgUvQpOyJuhcw1Q9by0VH+hceGbs2YkkzfXFwYgmfZQtVNjHarFnefiV0uSi6qOSgcClYWdA7s6EbeM7oOqGWyihX0LOLKab0ILRDtL+iTLEjT9PX1dW9vT6dy5cbh4eF8Pt8+TciC7RniIQYBZMEaVNX1ZZ21AmWbz8fZlwxKKehr9w1kwfKslTuQ9xCWtIps3hGpb5at4VZUTUyn/naKXO1Wi/sjcVBZKEzaWRZ0H/wdsENW3urmtAZSi0InCnomC9I0vbu7W6kGhMHe3l6oHw4gCzox2gcYJLJgjaTLaTGfkv11vaZqatHz0tqrBUlptUH9lK4Q1jqznYx1pVvhs9CM+h1fqdDmYs+xlo3PxC6vG7BEW9Ax5WbXACWbtfvqy2mtTJUD6sLn/smCxWJxeHi4UhmMRqOANyEiC7ow2IcYI7JgjazLeSGf0b11KyzlHJJPLsI2/6yc2uV2ibB1lK8x29XWJcJnKVBnoepC/q8IUS7kL1fz5f/y63hHL5b17XK7xM1BNlqZr/qgKrxJJzmauhHmgDq11T9ZkKbp/f39Slmw/W2GZp6RBSYNtttDAFmwRi7kxJCf/X11rWnCNCxPL/WnkPqWagXBMSPaTuwSEa5VbhWoGyMqr8eXzkRVx2k3h+nwblTN7VSjZokz4MosiBpqtcPVgVI8ld5k9zTuUl3VmFeBaYNubPRMFiwWC/3SFscQVUUfP2IMmx5kQVieeAtFAFmwBkl58rfno7KPyilE7txgClljsik3kkdoO7FLhLVdLr2WbzlcDaTOfGg35wujpmVlFhSQ2qAqvZW91IxQBdG1f3smCyaTiZr6vf+en58HzxKyIDhSHAYhgCxYA6M8+Zfu7nM4qJxCxJSRX5/Wn0LqW0ZcLTi6uDF+G1n3mc++0A14PhO73C4RbkrllVlQDZcndFVurUlUehMtb5LTvL0ObXVdFkyn09vb27u7O8F8Pp+fn5+fnZ39z//8z2g0sqXBycnJYrEIniBkQXCkOAxCAFmwDkY5NazWBeVpwmjEml5Kk5k2tcvtEmHsKK8929X/CYBwWWNlQPfA2HCEaOxdbvpM7HK7RPgql4vP+WRdbjH7XB9UhbctcuqKqfVl3ZUF8/n88+fPeuKfTCYl2KJr2iBJkoODg9lsVjIL8hFZEAQjToITQBash1TODR5h8HaTPSAg8+idQ6wZxDMxSbtCQ8KpPTE7yu1mVD9tY7tE2JbKpcvCs5OU05X/lny57JX/4ssatuGg6urva1Szbzf6vVbSxoZqf+8h+uBQGbYPX3d95SqwjvzbXVlwdXWlp/zDw0N7vi/9UnE0Gr2+vkZKC7IgEljcbkkAWbAuQDk5ZK9F0nNLmup3IqhZQ5kdGUbZcwvESakwUeWF8o0Bb4/GM3iMhwQJQ3sGc5VLp4WGll21je0SwaRcLl3q06r6XYHJwUez7Mtlp/zrHydsz8FyqZ4dkUOUJvVBZe+9yF+G4c6pr7u+cheOFpd1SBbMZrPb21s9tYs3xp6cnPh+U/D+/m4M8OTp6SleHpAF8djieRsCyIL16b0ZX66bp5DsRUnG7KKuVTMT4/l6jrcpGZb6OXxH8hF5+fylliDMEhG8c7KR051o3GjUNrZLfG7105jErwvNzhsddxH1tVGwjcFBhVxMgsmwPij9lcOy41U59XXXV17A0P4PnZAFr6+v+vuCvb29mlTn87ke1vrmg5p11zVDFqxLDPtmCCALNuMsH52rzyDqQftFb6Wn8WfPDDauM01b800DchlCTJL2BGaWCBeeyUY/UzGbEvWLlG1ju8Tt1g4os9OX9JXCwNeGyUB4yx+pHJKD8chiOwV1QS2DrZVTX3d95WUMLf/cCVlgPs94rVcYiIP66uoqdhaQBbEJ438zAsiCzbgNsJaY0lyTf08muwHmdMMut1MWzGYz8xbC4+PjJEkODw/v7+/X+h3B3t7e6enpWlU244gs2IwbtWITQBbEJtwX//65X679uwRDXzpPPwoE2iYLXl9f9fOIxuNxIdb1P5yengZ5E9LKlpEFKxFhsBMCyIKdYO9go3Lyt77CULdRogo6mNQNQ26VLHh/fzcfNrC9LGhGE3ygRxZsOP6oFpkAsiAy4B65F+sF2Tev4r3K2auV5c0V5q2WPeoxXXET2LksmC7/RHCvr69iFB4fH9/f37sjbmUpsqCVaSGoFFnAIFiDwNvjTX5LoBAI2V2U8oeVazjCtMsEdigLXl5exO8LRqPR+/u7oPi6/OscUWRB51I2kICRBQNJNN2EQDACu5IFpWcN6acRBOtYs46QBc3yprW6BJAFdUlhBwEICAK7kgX6GYUnJyfPz89dTweyoOsZ7Gv8yIK+ZpZ+QSAWgWZkgf6+4PLyUvTk42bA8Xj88vISq2PN+kUWNMub1uoSQBbUJYUdBCAgCDQgC/QPDpMkGY1GvSSPLOhlWnvQKWRBD5JIFyDQKIEGZIH+zeHh4aH5kKJG+xm5MWRBZMC435AAsmBDcFSDwGAJBJcFLy8vl5eXp6en+o6BDynQp+8LnEMFWeDEQuHOCSALdp4CAoBAxwgElAXz+Vx4E88e0LcRdIzIRuEiCzbCRqXoBJAF0RHTAAR6RiCgLJhMJvKRWElyfHw8nU57xqqiO8iCCjjs2iEBZMFW8N0vFdzKJZV7RMD/eqlOd3IbWSB+X3B5eSneRbRYLC4vLz9//tzXGwgqEo0sqIDDrh0SQBZsAx9VsA29NtT1vwCqHF19S7PmZrVMD23c3kwWTKfTk5MTvTYwQB1QyiWyoASEjy0hgCzYIhGua0FRps99y42jo4ubR+sBwb4Zo/SAYVHZqp2F/fb2eHF0pN5LkL2pwNFMsX++Fx6ZVnVsTPsub/uSYPepvmWhbi+V42aywPzN4cnJSWNvJCrko00fkAVtyoYdy4aHvO3IVRLVuavBdcqQBevQKtqKxJbeHCgKs7cJyb9cIZRePugcF3JKziot66vapbppahgqG/lv9WuLVs/5qy2KGDr9yZkEZ4/qWxarC5xW/opGHftUUxZ8PHdoPB7rVYHn5+fT09Nhfl/gTHDbZIE6d5knFPe1hu9gaP8ljauPvgsqXy+dyVy3MKrzdYMp2yMLykRqfxZ5LamC1JVt9e7hpDA5OCxFUZJcmGsLYkngxlwvyDVB9qIiFfFy8SA7pAvNqL3qX1W3HHhpf6UPZdv9fx1J8HSqvmXJQQ91wUpZMJlMjo+PxfTS14cRldK8wce2ygJ1RaPXIa1TivNgUGeWVl/SqFOs7mPeSeuU5+zlBnl2Vonq3NniGoXIgjVgFUw9aa0sLkzYtqU8rqzhWWjXWChwzuxvN0fVDtTR66ytViGqXZQC6vBHOwm+ztS3LHvYvGbZU1s+r5QF+mFESZIM6jeHa2WonbKgeOj37ZLGdTC6+5g6L/HWSnCVsSuQKvtG9yELNsQtsppYc6sn24652Lb0+SyGKK3spotm/k+OWLRxPWXyVloszFbh8lUL7SxdLnToJcmP2yBuHvOdK/YKw2VDhgerGUFjmYa3mwsl/c14siCkB7NY+DeSYAZrGxbPERWY5C5zYBiNGN3v8OZKWXB2dpYkyefPn3vz/oIY2eqCLEjV7NiTSxrPsSiKS+dUj22YoRDV+bYhIgs2I+g4+QtHnmw75hHbUhoVDkArPFGt2saqVCxQ7ZhTl7DwdstwoGpnU23V/Q8y0EwyLP+yeyPzK5HqvaI5PZ8LD+rmytyJPmdd3NzIqd+8BfPmTcdqFBd6LZNwoRWFYVhopygL/IsqssVC3TpUDcDt31wpC9rfhTZE2BFZoA4i48CRh43xzaY8ng0bF2F11K8wc1UVZY5YtLHr0NM71YYd+XKPs67HNi1dFLlvv8jcinvCzaua/J5wl3N5wiucPFTgjf6LLNgMtxzf9vB2ZTtf9zftXZbSbZK4r76zkSbnP9PT2l3wOZHl1b6zbylK4Tn8Vbuq3rvsT+5T3zyhe28cN5qYcUeGXhRcHpDaWBXrAq0qina6GUPFqGsmXVeGpz/LHLiLXaleO2ktqoAsCJKMbskCc6jbA1odrqaVBUkerJU2VqVigWrHPkfJPfaOggM78uVuZ7GnUK09Fi+KijeEGWfq0tWT6rzlXPVMGRTCbvgDsmAj4DKFjgxa2c60pRxIxRVw2zILRQ0OMVPZvzgUtQoT1iY9kG6Kx1C9A8vZnNUZq6BQrXpvZuoMUJfn4KVdaflPU8wNM6d22vLqhviosMz92b6c1Zbd9nWmwKRDH5AFQZLVDVmgjiXzXCEGdH4wZDjUodTmSxoVZTFy1/VC3iPTVrEoXBbpbyldloVzfmapMBYRasfGAkyQMbaZE2TBRtycc8LSkz449NKR2CgMJMPSHEoyFP2LAumiUFX6V4Nro+izSg4/slMbubbqKkKFw0JHW703n1/tWMoNFY8u3UBlsaEhPHYOBWFZqj4YB3I5OBWOr1zt79q/yIIgGWu/LOjfJY04jI0fkKtrf8eJyjrkZWX7nC0P8PzEIi3t85ceOKZz5bfCXNdrZANZsBFm/3leZlg+t0Bpg8LMLls0x4UriMLddnokqhFkTEauymn6mK31F/8KN/xJR/lI9PfJ3cDb2+Pjjbht4OJC3tWXe9PCI1tDsxc9lCzx7FW75W0JupWsoeVxXOKhP6pQPXCtPnrstG7KHduW0lluYnlX0ViWakdH/0UWBElcO2WBOmfl/9pnL/tgkEBaf0kjIs/7ZmwdXZROquVeyrrmSU6Ng9IRXmGpamjnqqrLrTJu+l9kwUbEvROAnM/yqUItXGdffReb0uOiWFz8lMt16VIOOKOBYgX9SRoaw74UgTRQYfm7pF2qDb1qZjpfbitn0tL4bcBy/i/+WqFirwzG8q8LdEMeip5iq5MeOy0LcmYuy2KZ5VzxUmNgddJ0jXZvIAuC5KetskBcTKhjzRYFSvL7x3N7L2mKh6xIo6FlCl0q2crju2Cix4GwlaeLSktZRVaQlN1OtfemN5AFGxH35700lJbe5Qgopd5l6QpGtlUccVvfXFCe+GQrerp1RSLK1Hg+yu+q1WvuzurmOcI2cO+tC8eWYWaQJeKOMP3tlPeUPy/bMQsrCFbs8nNu8R5kQZDktFMWGAeNOvXk4lj22xz3XhStvKTxRi52FK7eSraShsHH6HrhEK+0LCG8uRDKwD4zGt6b3kQWbETcn/fSUBLepXnx6HJauqKRA1YOR+XLPTpd9b1l0nE2IKXXGmPTHfbq+kZjjoDKe8ufHVVEkTscn1qwwvRUdwBxW+allmsjZGFVTL+xu3ObyIIgKWu9LMivHUpnm3zYV4OQB0VrLmmq1jnkQWr0tNRL2RnDwOh84RCvtJSVcucKktux0UZzm8iCzVgXRoHpIs+2Waq+KzenXY9loVr2QY0aXVe27VkwyH4/qE0tZ8UC3QvRRp1x6Rnxsriq4er+lvfq0IoRW5/K9aSBp9gKUzZjzdiy3CDi8aiK5c9NnAA8zKy+dKYAWRAkVV2QBfbpJ+u6GvXFn+84oBSPI3kgeM5cjur+Iuk4O96sg9pfqypy+ygt99Jos9xEqXKFpappOg/IRbnf7l9kwWb8SsMgd2JmOy9Vw9E8ICzLxwv5zo78YLPW4YRLOepKN/PlX5E5JyczGrWturG8j8+YA9V+x7+ybfPGXTWqjRU4IU7ejJ6Yz1uo3isaVU4L31VkKunx49FD+c2TFkVR21MsneZ8NEnzUUvqB0sFseDxqARf1Uqg1aoDa6eKkAVB0tUJWaBPXflBo4pWnzDUQazrquPNXTXyJU2WNN9hrMSFecxbtjJ63Rs9CmQ/da+sfivLtxv11WvJuXRtNq/q7OBfZMGG0H0jpJTt3Ls1UixLNTLUvT75v/blf/F2vdxS3NmXt7pqS0WV1Svdh+urqquIxxfKXwaI3/noA0YbFZ/5IfdX71UN51bq90S6n7od32FuwRVOpctydedDEktHqMejOtEsQ8v9qj5k/8pG6/I1q7Z0G1kQJDEdkQVK+RoD2DoYunFJ45UF+vLL6KM6ss0idYouXKtUXEUYz1jLLpf5IVYAACAASURBVGiy32spdy6EFSeRIAOuthNkQW1UJUMrrWK/pzifHfRs47DMroTlL/DkDOh/sKZ6tKb63W02dTp+CFiK2vqo5141XC0LR0E2wHW74pGHojfGvLhcu9BG5bcmVO/Nm1yuDZheyn10UMxqe4p9siBbisxWIXLqxR9N+D0aidWZzcNfbnliKVl16SOyIEi2uiILlLDNB7g1pEWBPHwK/7TqkkadGNR1RvE3F3rKltm1emke7NmFlPGk9HLdrCV1OjEN9WnW4VxB1DZBRtkmTpAFm1DL6vTvGnBTEoOv5zjCDSaWFDH2dXQTWRAkcZ2RBepkp3WBY8R35JJGTb0F6eK5onL0Mst76ZKmfMVjDA3H5ZPe63SuLtKMyytdockNZMHGtHt4ut+YxaArOg9wTaSPwwRZoNO7zUbbZME2faFunwggC7bIppgPdq3stugAVbcnIKd938Kf2O3bu33zO/GALAiCHVkQBCNOghNAFmyDtPo6cRvP1O0IgRWqoJ8jBFkQZHQiC4JgxElwAsiCrZD28lpwKyIDq1xLFfRuPQlZEGSYIwuCYMRJcALIguBIcQiBnhNAFgRJMLIgCEacBCeALAiOFIcQ6DkBZEGQBCMLgmDESXACyILgSHEIgZ4TQBYESTCyIAhGnAQngCwIjhSHEOg5AWRBkAQjC4JgxElwAsiC4EhxCIGeE0AWBEkwsiAIRpwEJ4AsCI4UhxDoOQFkQZAEIwuCYMRJcALIguBIcQiBnhNAFgRJMLIgCEacBCeALAiOFIcQ6DkBZEGQBCMLgmDESXACyILgSHEIgZ4TQBYESTCyIAhGnAQngCwIjhSHEOg5AWRBkAQjC4JgxElwAk3LgjF/vSbw3//93//5n//Z6y7SufHBwUGSJAcHBzXPR9Pp9PX1tabxcMyQBcPJdbd62rQsKL7mmk8QgEBXCdSXBe/v70mSXF1dzWazbp0fo0aLLIiKF+cbE0AWdPWkTNwQ2C2B+rJgsViIUPf29sbj8WKx2PiE1aeKyII+ZbNPfWlIFry/v0/46zuBu7s7cfb/r//6r773lf5NXl5e6p8K9/f3tYjZ399/eHioX7evlsiCvma26/1qSBZ0HRPx1yEwmUzEqf/j6/c69tgMh8DJyYmWBWLj5ORkMpkMh4DdU2SBzYSSNhBAFrQhCz2JAVnQk0RG6Mbl5WVJFoiP5+fn0+k0QoMdcIks6ECSBhkismCQaY/TaWRBHK598KqnQFscjEaj6+vr+Xzeh36u0wfNZLDCaB1a2DZHAFnQHOvet4Qs6H2KN+7g/f29LQjMkr29vbu7u439d7EisqCLWRtCzMiCIWS5oT4iCxoC3cFmXl5eTBHg2z48PHx6eupg/zYJGVmwCTXqxCeALIjPeDAtIAsGk+q1OzqbzXxSwC4/PT0dwuOPkAVrDyMqNEIAWdAI5mE0giwYRp437OVoNLIVgK9kNBr1/keMyIINRxLVIhNAFkQGPCT3yIIhZXvtvh4eHvpEgC4/PT29vb1d64kIa8fRmgrIgtakgkAKBJAFBRx82IYAsmAber2ve3Z2pqd/e+P8/HwIXxyYWUYWmDTYbg8BZEF7ctH5SJAFnU9hzA5cX1/bakC8cukvf/lLzJZb6htZ0NLEDD4sZMHgh0A4AMiCcCx76Ek/G9sUB//8z/+cJMnh4eEAX5SALOjhKO9Fl5AFvUhjOzqBLGhHHloaxdPTkykIRqPR09OTfvrh1dVVS+OOFhayIBpaHG9FAFmwFT4qmwSQBSYNtksEXl9ftSzY398XdxLMZjP9FqWhPegQWVAaIXxsCQFkQUsS0YcwkAV9yGK0PpivVzYf9/v09DQajfb394f2PQKyINpYw/FWBJAFW+GjskkAWWDSYNsmIBYG7u/vS7tMlVDa1eOPyIIeJ7fTXUMWdDp97QoeWdCufLQvmpOTk8vLy/bFtZuIkAW74U6rqwggC1YRYn9tAsiC2qgGajgejyu+KZhOpwcHB2dnZxU2fQKHLOhTNvvUF2RBn7K5474gC3acgI43//DwIO5JHMivEpAFHR+wvQ0fWdDb1DbfMWRB88z71OJisTg4OBDKYDKZ9Klrzr4gC5xYKNw5AWTBzlPQnwCQBf3J5Y56oofQEBYMkAU7GmU0u4IAsmAFIHbXJ6DP6ePxuH4tLCFgEri/vz87O3t/fzcLe7mNLOhlWnvQKWRBD5LYli4gC9qSCeLoAgFkQReyNMQYkQVDzHqkPiMLIoEdptvpdHp/f9/jXyUgC4Y5sNvfa2RB+3PUmQiRBZ1JVRcCPT4+TpLk/Py8C8FuEiOyYBNq1IlPAFkQn/FgWkAWDCbVTXT09PRU/CrBfipiE83HbwNZEJ8xLWxCAFmwCTXqOAkgC5xYKNyMwOvr62g0SpJkb29vMw8tr4UsaHmCBhsesmCwqQ/fcWRBeKYt87hYLM7Ozg4PD5v5pcDd3V2SJPv7+718uSKyoGWjm3AkAWQBQyEYAWRBMJRtdTSbzcTC/vHxcTM3A76+vjYjQZpHjixonjkt1iGALKhDCZtaBJAFtTB13Ojz589CGfB0ii0ziSzYEiDVIxFAFkQCO0S3yIIhZH02m4n3I5+cnDTW39lsdnp6+uXLl8ZabKAhZEEDkGliAwLIgg2gUcVNAFng5tK70peXl7Ozs+fn58Z6dn9/L5Yobm9vG2s0dkPIgtiE8b8ZAWTBZtyo5SCALHBAoSgEgdlsJn6VMBqNenOrAbIgxNDAR3gCyILwTAfrEVkwtNTP5/PJZNLMvYd6weD6+rofnJEF/chj/3qBLOhfTqP3aLFYfP782X4wbYUseH5+vry8bHLZOToFGkjT8/PzJElOTk6aUQZXV1cHBwe9eecysoBjqJ0EkAXtzEvboxI/KB+NRpeXl09PT+JMXZIF7+/vk8nky5cvBwcHSZIcHx+3vVfEtyaBy8tLfpWwJrPcHFmQs2CrTQSQBW3KRndiWSwW4nZ0MSuU/i++Bi4VPj09dad/RFqLwGw229vbS5JkNBo1/MSh2WxWK8QWGyELWpycQYeGLBh0+rfpvFgwKM39vo8sFWyDus11xVf+Dd8JeHJykiRJ1x+cgCxo88AecmzIgiFnf6u+Vy8YlPQBSwVbsW535efn59fX1yZjFF9LJUny8vLSZLth20IWhOWJt1AEkAWhSA7RT80FA5YKhjg4Yvb54eFB6M5ODy1kQcwxgu/NCSALNmdHzZoLBiwVDGGoLBaLq6urxh5EKJ7BPBqNmvkRRIwMIgtiUMXn9gSQBdszHLSHlQsGnb6eG3Rq1+z809OTuIK/u7tbs+om5ovF4u7urtOKE1mwSeKpE58AsiA+4163sHLBoNMn7l6nLnDnzAcRTqfTwN776A5Z0Mes9qFPyII+ZHG3fahYMGCpYLepabj1n376SSwYNPZVQpqmH18ijMfjLj4pC1nQ8PikuZoEkAU1QWHmJVCxYMBSgZdaT3eI5x42mXetRTr39ENkQU8Pgs53C1nQ+RS2oQPOBQOWCtqQmt7H8PLyIpYo9vf3G36k0pZskQVbAqR6JALIgkhgh+XWuWDQ5CXjsHDT2yKBq6urJu92LDa++SdkwebsqBmTALIgJt0h+S4tGLBUMKTkO/p6dnY2Go0eHh4c+0IXLRaL4+PjJEm6pUSRBaEHAv7CEEAWhOGIl9KCQbdO0KQvOAHxyoy9vb3GfpXQubckIAuCjzocBiGALAiCEScZAb1gwFIBA+L29lYs7J+dnUHDSQBZ4MRC4c4JIAt2noL+BKAXDFgq6E9St+iJWNj/eKfRFj7Wrnp1dbW3t9eJEYgsWDu7VGiEQEOy4OMo/XjdGX+9J/DHP/5xf3+/992kg+PxeOXTDKfT6fn5+f39fSOnMtmI/vKi/d8pIAuaHBi0VZ9AQ7Lg8vJSrCjyfwhAoB8EDg4O6p9oGrPUX16cn5831uhmDSELNuNGrdgEkAX9OEXTCwg0TaC+LFgsFg8PD41dvp+cnAgWsc+eW/pHFmwJkOqRCDQtCyJ1A7cQgEBjBE5PT5MkqS8LxPy3t7fXjDKYzWafP39u+MuLDeAjCzaARpUGCCALGoBMExDoFYF1ZYH+iUr7F/abzBOyoEnatFWfALKgPissIQCBjMC6skA/bihJkibfXCC+vHh/f29n2pAF7cwLUSELGAMQgMB6BNaVBWmavr6+jkajJEmafNWhWKUYjUbtVAbIgvWGHdZNEUAWNEWadiDQFwIbyII0TafT6cvLS5MM7u/vxb2HJycnTbZbsy1kQU1QmDVMAFnQMHCag0DnCWwmC3bSbf2rhBbegYgs2MmQoNGVBJAFKxFhAAEIFAhsKQtub2+vrq6aeQnydDrd29tLkuSnn34q9KEFH5AFLUgCITgIIAscUCiCAAQqCGwjC/QZ5/PnzxVNBNw1m82avM+xfuTIgvqssGySgD5IPx7nKtqN8gBz/ZTDJvtGWxCAQAwC28iCNE31uxKaee1yDAJBfCILgmDESXACyILgSHEIgZ4T2FIWvLy87OROwPF4fH5+3tiLnlcOAmTBSkQY7IQAsmAn2GkUAh0msKUs0O/g/vLlS5MUxC8kj4+PF4tFk+362kIW+MhQvlsCyILd8qd1CHSPwPayYCd9/vz5s1il0N+Y7iQM3SiyQKNgo1UEkAWtSgfBQKADBDoqC2azmX7tchsoIwvakAVisAkgC2wmlEAAAlUEAsqCL1++JElyfX1d1V64fc/Pz3t7e401Vx04sqCaD3t3RQBZsCvytAuBrhIIKAvOz8/Fwv7T01NXcWwaN7JgU3LUi0sAWRCXL94h0D8CAWXBZDIRsmB/f7/hOwFfX18bbrE0EpAFJSB8bAkBZEFLEkEYEOgMgYCyIE1T8T1CkiSvr6+NIRCvSzg8PGzmYYvOfiELnFgo3DkBZMHOU0AAEOgYgbCyYLFYfPny5e7urkkK4uWKSZJcXl422a7ZFrLApMF2ewggC9qTCyKBQDcIhJUFO+nzYrE4ODgQ31/s6tHIyIKdpJ5GVxJAFqxEhAEEIFAgEE8WTCaTxl6+rB+2uKuXKyILCqOKD60hgCxoTSoIBAIdIRBJFjw/Pzd8+f78/Hx7e7urGw+RBR0Z74MLE1kwuJTTYQhsSSCSLHh/fxey4ODgYFdT9ZZk1qqOLFgLF8aNEUAWNIaahiDQEwKRZEGapldXV0IZ3N7eNgnr4eHh9va24V8lIAuaTDFt1SeALKjPCksIQCAjEE8WzOdzcSdgk7JgPp+LtyidnZ01mWBkQZO0aas+AWRBfVZYQgACGYF4siBN0/l8PplMGv4S4fDwUKxSNHn7IbKAw6mdBJAF7cwLUUGgvQSiyoKddFv/KuHg4KCxAJAFjaGmobUIIAvWwoUxBCAQd7VA8729vT07O2vs0Ye3t7dJkpyenuoAYm9oWfDx6qaPdz3zB4GWELi+vhaLZx/xiKMgiXEwXF5eimZiOMcnBCDQJIFmVgv29vaSJDk8PGzsC4Vd3XIozo38HwJtI4AsaPK8SlsQ6DCBZmSBvpa4urrqMCx/6Hq1oG2TAfFAQBBAFvgP36b3vD3eXFxc3Lw13S7ttYHA40V2RB7VSH99y8D9akYWzOfz/f39JElGo1HgDlS6e35+3tvb2+G7EiqjYycEdkCgS18iiPOiW9ldPO4AXpAm326Oll2qMzMEadB28vb2eHF0JMLI5qiji5tHVIqDk0yVewjq0rXGYv3Jvr6lHflWJc3IgjRNdzJD6zc6Nvz2pq1SQmUIxCTQRVlw5PircbUVE+Nq33L2t6eMN3W6342wUapET2p648iOdXU3Y1h40cVorMqnn5WGlm2sxU1lf7UMq29Z1YcN9jUmCzaIbfsq0+lUPMZgNBpNp9PtHeIBAl0n0D1ZsMOr6m2S3Zq5zexEPs8dXeTrA8vFg2x+awnqVqLLMIYIrP5kX9/STHGA7Z3IgtlsFiD0ei5++uknoet++umnejWwgkCfCSALGspuiCkkcKhaFDgvb99ujpAF1cRD5LT+ZF/fsjrqtfc2Lwvu7++TJDk5OWnsVwm3t7efP39u+LcJa2eCChBohEC/ZIGa6ErznCwuzHLZjX762/Ts6/T8arkIXnzxrleJC1+8+87UhXIVlHYhNnQ0BWOj7WWEhRDtb/xF3WV3s/sDVBNHde5gFHXrr3nXj0d3TffG7mOtyFehE/5XpjJvK4eUx7i8sUKRSz7usbip+3WODK802nSn30rEnKPMIGMG4hiQhqVuIttY2f2C9QYfmpcF+vv+L1++bBAwVSAAgW0I9EsWpKk4dxbnOllmnL31DHp0kf2pu+3yqUIhNeal5Q0NcvZQhr4zdaF8ebZXTWQ39Ik/rUMKxqphHaGsoKctXW1pKepe3Kh74YwbB1d9xS2q1v2iYK14FB7VGZUWs7xW5KvQpZlnKYYqUlluawlTDAdJIZux9VAww8y74NiqkgXGyBEpVxkseRcBHF1okWqksGgqLYt30dTpviPytYqalwWz2Uz/KuH9/X2taLc0fn19fXh42NIJ1SHQaQJ9kwVqBsqnO3niz0WBOmEXJlhZWDwRuy0fL/TNeM4z9XKuyiaBgjPpKw9DDxvbiWq3sISRTZHLqcV0KztXbE3exFhsXzcnN1QbjoDKpuo79KRuPGaEwpndxzUi96PLO2HcsScLjSAKbYlVobe3rIbfs8XAVVBVPfsOpsBLt1bUa4XYdC9Ux4xOSMVrliir1SPZFX3tsuZlQZqmDw8PQkg1OUnrtyjpH3DXhoQhBPpDoHuyIL/eVtfd5VVfeaZdnkDtM7fca02Hotw86/os8+zbdcQ+R7kdiHJjGct2zVCEbT4NFOtmiyN6Rsl2SUPbg6pnq6d8j7W1djx2u1YfjWWdlZF70cnAVqZS2hXXkLJu2mFZna8q8Abmq+RoT8VWyqAjhVZlWXVl933R1C3fiSwQyuD29rax2wsEDvGwxdFo9PLyUhcQdhDoF4EuygJxFWH8v3xi1NOnXFw3pynvqdza4TvrGgPAOlPLfY5yy712UzauaFc6yftTrquc+srVfjUjFq9c873mVpx4fBE6yn3ofOVqStXDwuFTdFDxLM/JZvcrtr0B+Oo4KqyMTX9pULZ0OCv0SnffF03d8l3JgrrxBbXTqxRNvi4haA9wBoFtCXRPFuRzYkXf5SlzKR2KFcTJNZFfJYsvlPOvlY2Vf+miWLvUZPlMrXY7yr0n8fIla2W7Mnp9xnc0tIzBV64C1LKgsntL60jx+CJ0lPvQCdMaqXT4VCCkj+wrn/Wf4eQLTDnP/n17e1w+xVKOseWI1OmrXLAoR+3+XKP7ZjibbO9cFkwmkya/Svj8+bP4HcQmsKgDge4T6KksUBeM5W/4jXJjtcHc1KfsyulQJr58plbjwVHun0JKxpXtlr2U6qr2y1JDl+cbomb1/QdL60jxrBF5udOyE7LYTF5xW6fS15Zw9Kbv9suql+4HyIE5tjyBqfjUzSDFqErPO/LHJjPk60X97jsiX6tot7JgNpuJxw01+X3/ZDJp8sEJa6UDYwjEJtBTWSBPqeKErE+sGUz/abiEWp52Ky+nfc4c5f4ppGRc2a6wzZf+S3V1F3zl2kDro8r+ZeaR4vFF6Cj3oXOY5v0zt+oYmj/zKwwY01Fp2xdYZibazFafjNs+HBX8sZX3rPpcCi7cx93KgsVioX+V0Nhrl8PBwxMEukegl7JAnpIvHuVpOJ9G9em6xplfe/FntXymVpaOcseMIK3LxhXtSif5VF6uWxGA2qX+VWxyZ2pP6d848awRuQ9dRWDFLvjaKlpln2q7XFb1BaYdldk6Knhjs2zLluvFave1dsluZUGapuLpRkmSnJ2d1Y46gOHLy8vp6SnvSgiAEhedItBDWSDPp+KULD8YwqD22dSuKjP7dqOuAK1T99JCVSxMCrKwUCb8lU/3/rnJ9mHVlSH6yuVus2HjdorC3uwXdkI8eYnZ8ciSkuiSpYVvLHwROsrtZgq9NHJb6ED+weEz31ncWsNUL6SUeps59ITswCMa9P1IwkRmhSarOpov9mnbTzuXBWmanp+fJ0lyfn6+bWfWqX91dSXWG5+fn9ephy0Euk2gd7LAOiHLk2c+H0uL4vJudirPnntYeMJdfsrWP6ITTw/QziyLt0f1ZKHydOs9iYsd2qW+1CwvQOdt5UPOriv2+crzmsst5bJ4v51+J4KacJVZcUFclRampbxQIvMBEYZmr/2RS6eFhpbWNVPpa0son+UTDETjyp/dkthf+r80d1nrkPXIUVLBeW/BcvbJYagnT6gELNu1e6HCLeTFOZJLga/3sQ2yIE3TyWTS8MOJn5+fhSzY399vuOn1MoQ1BIIS6J4scDy3IH9grTpRFs7U8hRtnHXzqVs+dFAc/aUz9nKCzh8onD9+LvdknOszT8LNkXzqoGGW5UyGkd3WllnqvfbpXl9titlCO7ZuoJQ+tSs9NFw+9U5zo3i/ncaQbeiHNuVXvyvjKUSu43YB8UXoLBeFy6AK6ArN+VPp9Fno1fIRGKr3hcFjwipvV8iCfGCI5yeKsSFHiNmAiK3OcypdvVDjXaLRxO2RXI59jc8tkQVrRBzOVC8YNPlTiHDh4wkCmxDooixQp2/z3+WZVl1kmafdDIo6eZo/Ty89rz57JJ36aqDIcfkAXtVU+cF1S++P+unJ6qpbNGjN1vpBhcv5XT1533W6z4IuNJxpCTN8GaOnrlcuFLsmP4mWtP7JWnKgqBXP0qMZuHRlA1kzcjc60YGVqfS1ZUF2MnYyEx0V8rI83FQFk4NMn4jErJCXmDc9ugLx9WJl91U8m/7bKlnw8PBwenra2CS9WCzOzs6Oj4/5YcKmw4d63SPQJVnQPbpEDIHuE2iVLDg7O0uSZDQa8auE7o8setBSAsiCliaGsCDQEgKtkgU//fSTWLo7OTlpmM98Pp9Opw03SnMQaJ4AsqB55rQIgS4RaJUsSNNULBgkSdLkgsF8Pt/f3x+NRk9PT11KHrFCYH0CyIL1mVEDAkMi0DZZMJvNTk5Ozs/Pm3yL0nw+F6sU+/v73GcwpOE/xL4iC4aYdfoMgfoE2iYL6kce1vLLly9CGVxeXob1jDcItIoAsqBV6SAYCLSOQJtlwWKxaOyJAovF4vj4OEmSw8PD1iWJgCAQjgCyIBxLPEGgjwRaKwteX19Ho9H+/n5jdwLO5/Pb29uXl5c+5pk+QUASQBYwFCAAgSoCrZUFk8lErOqfnp5WdYB9EIDAOgSQBevQwhYCwyPQWlmQpqmILUmS+/v7JjPz/v4+Ho9ZNmiSOW01RgBZ0BhqGoJAJwm0WRa8v7+PRqMkSb58+dIk3MvLS/FUpca+v2iyd7Q1cALIgoEPALoPgRUE2iwL0jT9uGQfj8cN/2hQv+uZ7y9WjB52d5AAsqCDSSNkCDRIoOWyoEEShab09xeTyaSwgw8Q6DgBZEHHE0j4EIhMoCuy4Pn5+fb2trHfK06nU/Hcw4/7DCJnAPcQaJQAsqBR3DQGgc4R6IosODg4SJLk7OysMcKNSZDGekRDEEjTFFnAMIAABKoIdEUWnJyciN8rNvyrhCp27INABwkgCzqYNEKGQIMEuiILxNONkiTZ399vEE+6WCz2l39NvrqpyQ7S1tAIIAuGlnH6C4H1CHRFFqRpent72/zDiafTqVilODw8bPLtTetlEWsI1CaALKiNCkMIDJJAh2RBmqavr6/Nz82fP38WymDl4xP+9m//Vljyfwi0kwD3FgzyNE+nIbAOgW7JgnV6Fsx2Npvt7+8nSXJ8fFztFFnQzrmQqDQBZEH1IcxeCEBAPmD44OCgQyxeXl4+HjQ0Ho8bi/nl5eXs7GzlMwyELPibv/mbPf4g0CYC/+///T+hDJAFjZ00aAgCXSXQxdWC6+trcY57eHhoFXchC/b29loVFcFA4F//9V+RBQwDCECgFoEuyoKXlxdxjtvf32/4ucjVTJEF1XzYuysCyIJdkaddCHSPQBdlQZqmX758aeGCAbKgewfAMCJGFgwjz/QSAiEIdFQWLBaLs7Oz4+NjVgtCjAJ89JwAsqDnCaZ7EAhIoKOyICCBgK5YLQgIE1cBCSALAsLEFQR6TqAHsmA+n0+n0zbkCVnQhiwQg00AWWAzoQQCEHAT6LosmM/n4lWHT09P7h42WIosaBA2Ta1BAFmwBixMITBwAj2QBaPRSLwrYef3GSALBn40tbb7yILWpobAINA6Al2XBeavEi4vL3fLF1mwW/607iOALPCRoRwCECgT6IEsWCwWh4eHSZJ8PPqw3L1mPyMLmuVNa3UJIAvqksIOAhDogSxI0/Tj64PxeLzzdx8jCzig2kkAWdDOvBAVBNpIoB+yoCVkkQUtSQRhlAg0JwtO+es1gX/5l3/5p3/6p//4j//odS+H3rm9vb0kSbr1qqTSKc/8+LFgMB6P39/fzcLGtpEFjaGmobUINCcLxMNH+T8EINB1Ar2RBWdnZzv8VQKyYK25CuPGCESXBbe3t0O/whpA/4+Pj8VUd3BwMIDuDr2Lnz9/buwMFbUh/a6EnfwqAVkQNbk435hAdFmwcWRU7BCByWQiZEGTb7XvEB9CbScB/auEJEmaf/QhsqCdo4KokAWMgQAEkAUBIOJiFwReXl72ln/NP90IWbCLhNPmagLIgtWMsFhJAFmwEhEGrSXQvCAQKJAFrR0SAw8MWTDwARCm+8iCMBzxMiQCyIIhZbtLfUUWdClbrY0VWdDa1BBYTQKz2ezk5OTs7GyxWNSssqUZsmB9gG+PNxcXFzdv69fctkbW8pH6DdHRzeO2/tpcH1nQ5ux0JjZkQWdSRaAeAk9PT+Kkf3V15TEJXIwsWBvo242YmY+aFgaq4SQ5OspCaDyAtVFtUwFZsA096koCyAKGQtcJLBaLg4MDoQwmk0kD3UEW+CDLSfjCuiR/e7zIMtT4xbpoNrED8vWgswMIugAAIABJREFU2+XIgm7nryXRIwtakgjC2IbA8/OzkAXX19fb+KlZF1ngA+WVBb4KscuVGtnBlxexu+byjyxwUaFsTQLIgjWBYd5SAnd3d6enp828RQlZ4BsEbZMFMp5+f3NgJANZYMBgc1MCyIJNyVFvuAR2LAve3h4vlt+TixWSo6OLm8fi1fDyLjt9m13isEhT33W0XS5KluvwWcui1SQ5KtxAKCdgtVP9qyfkDd3qQVbss3Lvv1nAHY8Mxw5GtGOX1+q7DjJdnZrcNsYWsiAG1cH5RBYMLuV97/B0On15eYnay13KAmO6O8r+5ASpp99svleF2V122iJJLgriwZ4CBTO7XE6NN/KuQXnvnmhYf2m/nLbzxpYtHx0d6TY3dGvGlN01eHFxYUiirJWCOMnT7o5HhmMHY7ZjsJTi6aK677LV1anJw4u0hSyIBHZYbpEFw8r3AHorXvPx5cuXeH3dnSxQM4+ebbNOZjOgmp6VQT4fS4PlLG5PeGaJAGZPmaKk5EDeQ1i6s182r6IxUrCFW9m+6dTfjtFk1nMhZcq9tIPZvu+KvDc1xcjifEIWxOE6MK/IgoElvP/dPTw8FBey8dYMdiYLHBNkMaHSoDwN6vnRuCV//amxMOFpl4W2/NO13ZyMtbSIYc/kwmehGdV4qbDIIvsUTBas7Lvsjald7HCilyALoiMeQgPIgiFkeVB9fHh4ELLg+Pg4Usd3JQtWTj0VBtYEKWztidUut0sEV0f5+rJgdQAtkAWrgxQsDNUVaeitcIssWAGI3XUIIAvqUMKmWwQ+f/6cJMne3l6ksHckC6yZvdy9SoPyxOWY1Jf+7HK7RDTsKI8hC1w3R4qmV8/CHiKOyLfru6edcoKif0YWREc8hAaQBUPI8tD6uFgs7u7u4v1YsZOyoDxjB58as1FWbiQfeXZzdomwtsul1/Ith/Y1fN6c3PJM13YTvqZrWnraseKJXYAsiE14EP6RBYNIM50MSqCTskBMcPkFds0JL13np4xxZMEy0qML880G9m8y3Qn2TNfB++5pxx1UxFJkQUS4w3GNLBhOrgfY0483L4/H4+fn57B935EskKvp+cxu9ao89RsG1sQVfGrMGpOtOG68s5uzS0S4pXLhssbKgNFZvWn12tmENi81vYYkEjUrUqPbiLqBLIiKdyjOkQVDyfQg+3l9fZ0kyWg0CvuFwq5kgZzk7Mnn7UY+0Mg7O9nzoywpzeCqCXMatidLMZgc5XYzatzZxnaJ062Kc6N3LHniUT6Lr26QpYXfXNYMUumhitQoEFH/RRZExTsU58iCoWR6kP00f5UQ8LXLu5IFaj2/8GSi7KkF+YsBxTS2fCdR/uBD9YyB4qSlTPVv794e1QOLcn/ZsKk7Nea2xYaWQ892YpeIMVouF5/Fr0vE/8WzkqxnO4rqhf97ZIFad8l/HLl931WYGqd4oEQRZSG4CB+QBRGgDs8lsmB4OR9Wj8/OzsRc8vT05Ov53d2db5ezfHeywHqGoZwtjYt7dc2b7Sk85NCwEb0yLPXDEI/kA/1M4/I8rZg4y9XsKF9krP3YxnaJcGyXq+c2ykcnyj4v/yktdqjQ1L8+WaCv7gUk4XHbvqswi+A1ARVTzH+RBTHpDsY3smAwqR5oR2ez2f7+fpIkvu8Rnp6ekiRZi84uZUH2Bb75SgTj+cK6D6Un82fPDC4891gbFlzJ2/jETGpOZvY8LRx4ysXyhZxpb9Q6vW1sl7jd2gFldvryvlIYeGVBCWPIvhuPnvZhzxMQeAtZEBjoMN0hC4aZ90H1er78c3Z5Op3u7e0lSTKdTp0GzsIdywJnTL0tFOrBNfn7dEVvUazuGLJgNSMsVhJAFqxEhEFfCSwWi5OTE3FZO5lM6ncTWVCf1baW/rlfrgS4BMO2jXa2PrKgs6lrU+DIgjZlg1giElgsFmdnZ4eHh+/v72mazudzfdtBkiQPDw/120YW1Ge1raXvawB1GyWqwCSMLDBpsL0hAWTBhuCo1jUCs9lMLAycnJxMp1PxokVRkiTJ7e1t/Q4hC+qz2t5SrBdkmRLvVc5erSzzpl8cuX0r/fCALOhHHnfcC2TBjhNA8w0S0MsD//AP/6AFgdi4urqqHwiyoD6rIJZvjzcXR0oLCIGQ3UWZ/wQzSCs9cIIs6EESd98FZMHuc0AETRH4v//7v7//+78vCQLx8ezsrH4UyIL6rLBskgCyoEnavW0LWdDb1NIxg8BsNru+vh6NRk5NkCTJ4eGhYb5iE1mwAhC7d0QAWbAj8P1qFlnQr3zSmwKB19fXn3766fPnzxWCQAiF0WhUqFn5AVlQiYedOyOALNgZ+j41jCzoUzbpiybw9PQkHkjgWx6wy+fzua5evYEsqObD3l0RQBbsinyv2kUW9CqddMYg8P7+ru8xtEWAXeJ7DKLhUm4iC2wmlLSBALKgDVnofAzIgs6nkA5UEnh+fj48PLRFgF1S8dKEUgvIghIQPraEALKgJYnoRhiLxeLj3fN2rCtlgbOW7YcSCLSZwN3d3crvFOq/MAlZ0OZcDzk2ZMGQs79J34+Pj8/Pz+/v7803zPpkwWQyubq62t/fRxZswpo67SMwn8+vr6/tRQJdcn19XTNqZEFNUJg1TMAhCz4Wwcab/q18JPiHlN7Ud1Zv5fd22zhvwH/1m1Q+blbaMv7q250+Wt/Sf5qm4k1xSZKMRqOPX2kLh3d3d+K0+O///u9//OMff/jhh3/7t3/T11UnJyd12l15mfWR/Tp+fDYr/X+MXl/dOuX39/fVR+82R9Z4PF65Ov0RQJ04fTaxD96V/qvptWrv6+vr6emplgLmxvn5ec1QkQU1QWHWMAGHLLi8vDRH+VrbH2ec6g4cHBys5bBkvPLMW7Jf92Ns/9Vnxul0um7AJftq2aGv6Uu16n8UyS098LV+9WrLg4OD6sFzf39f7aF670r/4/G42kP13tPT0+r4tzmykiS5vLys9u+bqKrD1ntjH7wr/Vf3roV7n56e7BPahwiuGSqyoCYozBomUJYF+hyx2cbKI98+itZqKPa0Hdt/P2SBXjBYK3crjVdO28iC6rMDsqCaT4y9i8Xi9vZWL4wlSbK/v1+zIWRBTVCYNUzALQuOj48nG/1VX62mafry8rKRY1lp5VfU2zifTCax/Vcv8i8Wiy3jN7/vt0fSfD7f0r/2WXPB4O/+7u/+8pe/1Gz05eVF+3duzGazmq6cZiv9T6dTZ8WahSu/4Xp/f6/pymkmXtnnJCMKX19fnRVrFsY+eFf6r+hay3fNZrOrqystfKsPQ90XZIFGwUarCLhlwcrl0Fb1gWCaJ1BzwaD+7VfNd4EW20BAf3FTvZDWhlBXxvD6+npycpIkyUoBJ1whC1YixWAnBJAFO8Heh0ZXLhiMRqOVqy99AEEftiDQJ1kgMDw8PKxcNxKWyIItBg5VIxJAFkSE22/XKxcMWCro9wAI0rv+yYL6WJAF9Vlh2SQBZEGTtPvWVsWCAUsFfUt2nP4gC/b29uKgxSsENiSALNgQHNXMZxjom630BksFjJA6BJAFyII64wSbJgkgC5qk3cO2nAsGLBX0MNNxuoQs0EqaDQi0jUCapkn23/KPXyLEOQf20KvzDgOWCnqY6ThdQha0bSYgHghoAsiCOKe9AXgtLRiwVDCAnAfr4pBlwT/+4z8mSfLxFK+Pp8DxB4H2ENCndGRBsDPd0ByVFgxYKhjaANimv0OWBeKRryzNbjN+qBuDgH5MO7IgBt6h+NTqkqWCoaQ8UD+RBciCQEMJN8EIIAuCoRyyI71gwFLBkIfBBn1HFiALNhg2VIlKAFkQFe+AnB8fH7NUMKB8B+oqsgBZEGgo4SYYgeiyQDegb25kAwIQ6DSBle+6rH9+QhYgC+qPFiybIaBn7Vj3FugGOn0eJHgIQEATQBYEOTtzy2EQjDgJTkDP2tFlwSl/EIBAxwns7e2J39SFOhOxWsBqQaixhJ9QBJqTBaEixg8EILArAqenp8iCUPBZLQhFEj9hCSALwvLEGwT6TABZEDC7yIKAMHEVkACyICBMXEGg5wSQBQETjCwICBNXAQkgCwLCxBUEek4AWRAwwciCgDBxFZBAWRZMln+vr6+h2jAbCOUTPxCAwE4IIAsCYkcWBISJq4AEzFk7e4Ni8D+zgeDOcQgBCDRJAFkQkDayICBMXAUkYM7ayIKAYHEFgR4SCC4LptOpWKGcz+c95FXZJWRBJR527owAsmBn6GkYAp0jEFwWdI5AwICRBQFh4iogAWRBQJi4gkDPCSALAiYYWRAQJq4CEkAWBISJKwj0nACyIGCCkQUBYeIqIAFkQUCYuIJAzwkgCwImGFkQECauAhJAFgSEiSsI9JwAsiBggpEFAWHiKiABZEFAmLiCQM8JIAsCJhhZEBAmrgISQBYEhIkrCPScALIgYIKRBQFh4ioggbIs4CmHAeHiCgI9I4AsCJhQZEFAmLgKSKAsC5LlX8BXgJsNBIwbVxCAQPMEkAUBmSMLAsLEVUAC5qydPeUQWRAQLq4g0DMCyIKACUUWBISJq4AEkAUBYeIKAj0nEFwWjMdjcSkymUx6zs7qHrLAQkJBKwggC1qRBoKAQCcIIAsCpglZEBAmrgISQBYEhIkrCPScALIgYIKRBQFh4iogAWRBQJi4gkDPCSALAiYYWRAQJq4CEkAWBISJKwj0nACyIGCCkQUBYeIqIAFkQUCYuIJAzwkgCwImGFkQECauAhJAFgSEiSsI9JwAsiBggpEFAWHiKiABZEFAmLiCQM8JIAsCJhhZEBAmrgISQBYEhIkrCPScALIgYIKRBQFh4iogAWRBQJi4gkDPCSALAiYYWRAQZgRXjxfZk7aObt4i+E6jOt82YGTBtgSpD4HhEEAWBMx1q2SBmKbEEyfV/4+OLm4erUnRN6G9Pd5cHB2puomobNXO+L29PV4c5abuZizQbzdL55XT9EobVzdlqFaDvo5ahpsURHW+SUBmHWSBSYNtCECgigCyoIrOmvtaKQuO1J+e38vXy84JTc7HWaWlA1XbmsQNQ2Uj/z26eKwGuHLOT1dbKFmgepmLk3I307gX9E6K1f1vbi+yoDnW7W4p6jCN6rwm1/ox1Les2XR/zJAFAXPZQllQnMXfxJFQWkh3HB7K7sJcWxBLAoUl+FwTHBmmy8WDpaAoGNukVXWfflitCpxTvbubyIIkWb49kTco2iNxsxLHkWM4qt5rGG67qY7Wgiz3LNlFDWpd5+r4LwRuf/CdHpzc6sdQ39LZUJ8LkQUBs9t6WZCqqbFwJW0fHjWm4wybPqqdx+3bzVFRlDhIKw9OB8p/pRc7+GUzojgp+vXYOuLaoCiq8w3iKVRhtaCAI9SH6pxX710Zgzw2ikPYWUs0JJf1Cmt7heN8WXfLoJzt68J1navD31YChZIaCHQIzuuEfK+5tW60Zt2ebyMLAia4C7JAHYnGoWYfHqKkNKlaoKTVKjOrnlngCEfvlvsqVYHvLOCsa3dUtOW8iUKHYWyIeyj0KatwQeZy/nix+u4Jw328TWRBFLaunOcNVe/N7TxbcggbB6rH0HkMdHLFrH6XfSjUdU/1SUPU3jI//hC6vwdZEDCHHZIF5mFjHx7y8LSvNUxYolq1jWnv3lZN2We/eucIO/hlO85iT6G+q7J4oWV8K7J0qSIt3W2hSFrOlb0ycPe/mVJkQRTOVs4LrVTvLZi6PtQb/1lNT0OiuKTaPbauANYv29Z5/S77Y6sfQ31Lf2s93YMsCJjYDsgCNVeZs7Dr8BBl2QxYnh0VL5cntW+df31+ap4iXMGrK6XyhGzbqsYLvczuoViuCJj1lWUBR2apSBadK3PTxTpUAtsiCwIDFe6KOS834d+7YnlKDR69LCU2vGPJ05B0U6zmsU1XhJT3LeaKmYxYHVJ5o2LrrRRk9osj8+anpZXRweXNUBKiw9SwLLS0bEWzd1QsWPfyA7IgYFpbLgveHsUvApOkeDC5D4/Cucnxw0ZRa9vFgoy+9FQ8Gaw4Q+isycri5xLm5X6xj0t7q6PePqjO65icMeog8l6Ic7Dyq6sXLHfwAVkQBbo1oAqtePYq0VladTKOSnFvb3ER66hievI2lM1tRVXgXllYHZLsmDouSrGrNqxAlL0yKPCxP1Qd9MrVsk/Zga4m7pJvGcPFjdT22ZnBbWpFmwWkURxdZH+qbqkRO/R+lSALAuazhbJAHRD5v7bAdh4eGRb9iwJZu1BV1CotUW4G0+Gq6gRRaETWzfuXbx1dlH4IUe6oo13lW7avzgYVlqqGdq6qtkYTpGlalgUq6GD/mg0Ec9p6Rzrnzkhde9XkVjiUnMtT6obbGsPI2ZAoLKsChyyoH5KyLCjukCtmsgFnl7M7mAvU8lueC/ay39lpQB29xt3RRlEFimIHazxexZn/DhciCwImr5WyYHkFnevlwogXfXedVUwqhUU1fVx5TjtmRb39mB3Sxb8b85kG0ld+eFedH7TX5YYreEPO6HAz45KtbKRgop0XQqq0lFVkBaWgSopE+93NhjlrZz9SDP5nNhDceWsdFnOeC1JzqzC8ZIVC2bJ3coSZKnvdY8DxS4Q6B3v9kKRlfpRaeREWonfKb4W5Vb9+l2VVs8FCkbH2IsvtY9iqLEO2IrYMrcD7VoAsCJjRFsoC4wSkzjzmqWfZ+VqjPv8GQrqUx5DRgJ+ktDXPlsVjTxqowjVOD97gVZvK55qyoBCCfUqx+6oCuVk+YTk7Ldk2OysxZ21kQbA0qDFmDuzytnmASHvX0LCHWGEEVoZcEUa3Vszqd1nycFRQx6H1OFaLcNnS4Uw0491RmZUu7wwuC6bT6WT5N5/Puwxmk9jbLQv0vGgurmXdLB8evq7Lo0NOeOqTedrz1VxdLs9s4oS5zmHoD166NOIr2cpmDAMjTldAbktZKXcelowR0+abyILN2VXUzHPuMrL21h9wmbv6R4HVUPELwMKwLdnWD6nSUnZfOFfCqNCuC5BVVqfLb2+PjzfL7/2X3/0vGzN1VqmDRhvlPe7PibipQLeQ32Gwfn+Mxru1GVwWdKv7YaNtvSxQp5ripWz58PBCEYZKVchjWH301qq3Q/rODvA6Jwft1B+8fR4r2xptan9yo1S5wlLVNJ2HRaNa2OJfZMEW8PxVzZzbVtbe0qAq1pA78xnOKijaG5+shtQ+saOwclWyrR9SpaVsUDnfdMWsusv6FgylO/S/ObSqixxJQxuraOW6gmxcO7U2dEWFt7//IgsC5rb9skAdNQVdUDo8vEDUcaMPD3mceYRBdo+QNvU61Tv0QSuaqSvNvcFb0aq+G551mzoKuSEra1OHM2H5dqPePVUKRLougC630txnZEEU1qWcl9qw9pZHVcFeDpj8iJHWeUHB3PxgNaR3Sqd6HFvHQP2QKi1lg3kg0tpzatDxlTaquiy7khypAy6r66iQx1Bybq2Kli3Ln8v1B/QZWRAw2V2QBfLgMI9X63B4vLBel2jdWiCwiarZTb/mqxnzW/5qnNM0f3XeWf4myDiRaQPnhhX80kqHW/Bj26r4i+caVWpGn5fpLy3F1YtqwXKe13AG3mghsiAKbivnhVbsvXJImONK1VCjP79V1THlKePSv3ZDysD2WratH1KFpWrOdC6bNk80ysz7b0WXTdd5fUcFt6FLQpQtxeeWCPm8j7vYQhYEpN4JWaAUdj78y4eHUg7WKtry4UYlXm/698GW+TprBZlXdSIp/rSo1F75ozyWjecWqJ8a226sjhYbXfrQvVDTvW5Q/6JZ3PItDbWZw7mOLT/Xa2/NbiALovB25Nxox7FXjghbF8ixr0dTPjLNIsO5ueloSOxWR5TRnmVbOySHM9WKuoAvOZeu8zONGbRrWzZhhKusHHyyXY4KvkZluYGzFK1aSakfrgquf/8iCwLmtBuyQB1Levhbh0e6fOaZfpTHcgIsPP+/xEw8+Ez/CFIuNZSManxUJ551rjDUWUBP5xXROjqaRSXCzx2Ufx6dR56tD+hulsyczlWPHCe63GsDW8iCKJCdOdctufaKsuwn9cbj+dRTOfURKVxI29Vjx9XQ8hgWY9WYCdXUZxbVD0lZGr97DLti5pjlFU0NQy/W6fNY4d4J85om76WTsI1NHa6F7GRniMePi5/CT6pVWD39F1kQMLGtkgUB+4WrrhNAFkTJoD2xmM2496qpJ5Oh2aM8tBzNJzHlRE6FwrDwdB5lIf5VduaTQXxuXUHVDynyilmFLMhFwNHypwICnMRnKifRwYsb9URXE7Fp51JIevlhSU/g1CCLlYsZ6NsnZEHAjCILAsLEVUACZVkgfkP8+voaqg2zgVA+2+/HNcfmUXv3rrc8peYl/+WqaEjZqX/d63ueoNYLSWuZwCtmVbJgedFuLdaJ7pgzdl5iPoatFOgySR4U9ushCjdO5fnt8RayIGBykQUBYeIqIAFz1s4eZySmjtPT01BtmA2E8okfCEBgJwSQBQGxIwsCwsRVQALmrI0sCAgWVxDoIQFkQcCkIgsCwsRVQALIgoAwcQWBnhMILgvG47FYoZxMJj1nZ3UPWWAhoaAVBJAFrUgDQUCgEwSQBQHThCwICBNXAQkgCwLCxBUEek4AWRAwwciCgDBxFZAAsiAgTFxBoOcEkAUBE4wsCAgTVwEJIAsCwsQVBHpOAFkQMMHIgoAwcRWQALIgIExcQaDnBJAFAROMLAgIE1cBCSALAsLEFQR6TgBZEDDByIKAMHEVkACyICBMXEGg5wSQBQETjCwICBNXAQkgCwLCxBUEek4AWRAwwciCgDBxFZAAsiAgTFxBoOcEkAUBE4wsCAgTVwEJIAsCwsQVBHpOAFkQMMHIgoAwcRWQALIgIExcQaDnBJAFAROMLAgIE1cBCSALAsLEFQR6TgBZEDDByIKAMHEVkACyICBMXEGg5wSQBQETjCwICBNXAQkgCwLCxBUEek4AWRAwwciCgDBxFZAAsiAgTFxBoOcEkAUBE4wsCAgTVwEJIAsCwsQVBHpOAFkQMMHIgoAwcRWQALIgIExcQaDnBJAFAROMLAgIE1cBCSALAsLEFQR6TgBZEDDByIKAMHEVkEBZFgR0LVyZDQR3jkMIQKBJAsiCgLSRBQFh4iogAXPWTgL61a7MBnQhGxCAQBcJIAsCZg1ZEBAmrgISMGdtZEFAsLiCQA8JBJcF0+l0svybz+c95FXZJWRBJR527owAsmBn6GkYAp0jEFwWdI5AwICRBQFh4iogAWRBQJi4gkDPCSALAiYYWRAQJq4CEkAWBISJKwj0nACyIGCCkQUBYeIqIAFkQUCYuIJAzwkgCwImGFkQECauAhJAFgSEiSsI9JwAsiBggpEFAWHiKiABZEFAmLiCQM8JIAsCJhhZEBAmrgISQBYEhIkrCPScALIgYIKRBQFh4ioggbIsGC//7u/vQ7WhGxC/Tub/EIBAdwkcHx8nSXJwcBDq/DBkP8iCIWe/zX3Xs3aaptnjjJLl3+npaaigdQPCM/+HAAS6TgBZEOT0iCwIghEnwQnoWRtZ0PVzNfFDoCECAWUBTzkMeA0WfHrA4TAJRJcFT09P4osJ/g8BCPSDwN3dXajT5Xg8FlpmMpmE8tkVP6wWdCVTQ4szuiwYGlD6CwEI1CeALGC1oP5owbIZAsiCZjjTCgQg4CCALEAWOIYFRTslgCzYKX4ah8CwCSALkAXDPgLa2HtkQRuzQkwQGAgBZAGyYCBDvUPdRBZ0KFmECoG+EUAWIAv6Nqa73x9kQfdzSA8g0FkCyAJkQWcHb28DRxb0NrV0DALtJ4AsQBa0f5QOLUJkwdAyTn8h0CICyAJkQYuGI6EsCSALGAgQgMDOCCALkAU7G3w07CGALPCAoRgCEIhPAFmALIg/ymhhPQLIgvV4YQ0BCAQkgCxAFgQcTrgKQgBZEAQjTiAAgU0IIAuQBZuMG+rEJIAsiEkX3xCAQCUBZAGyoHKAsHMHBJAFO4BOkxCAgCCALEAWcCy0jQCyoG0ZIR4IDIgAsgBZMKDh3pGuIgs6kijChEAfCSALkAV9HNfd7hOyoNv5I3oIdJoAsgBZ0OkB3Mvgy7LgdPl3fX3dy97SKQhAoFUEkAXIglYNSIJJ07QsC4ACAQhAoDECyAJkQWODjYZqEkAW1ASFGQQgEJ4AsgBZEH5U4XE7AsiC7fhRGwIQgMBGBA4ODpIkQRZsBI9KEQkgCyLCxTUEIAABHwFkgY8M5bslgCzYLX9ahwAEBkoAWTDQxLe+28iC1qeIACEAgT4SQBb0Mat96BOyoA9ZpA8QgEDnCCALOpeygQSMLOhAor99+/aL+nt5efn9998bDvrXX3/9+vXrw8NDpHZj+48UNm4hsA0BZME29KgbjwCyIB7bbT1///794eEhcf1dXV398ssv2zZQu/6nT59EFN++fatdaQ3D2P7XCAVTCDRFAFnQFGnaWY8AsmA9Xo1Z//rrr3qyTJLk6urq6/LPFAk//vhjqHgeHh6+fv3622+/OR1eXV2JdiMtVMT27+wUhRDYLQFkwW7507qPQFkWjJd/9/f3vgqUN0Dg27dvevr/61//+v37d7NRUzF8/frV3LXxtmjOtwLx/fv3b9++RdIEaZrG9r8xFipCIB4BZEE8tnjehkBZFojpgSdsbMN0+7p6neDXX3/1edNX2BU2vrp2ebUssO0pgQAEtiSALNgSINUjEUAWRAK7uduXlxcxSf/1r3+t8KJXFOp8lbDynoBQsqCioYpdFd1cd5dYeFirVjOBrRXScIyn0+lk+Tefz4fTa9FTZMHQMt6V/iILWpepH3/8UUzSpe8O7ECdlkJViF8N/P777z///LPwJm5QeHl5Mf389ttv5i0L+g6Gr1+/ml8oCJ9XV1dmXbOhb9++ff36VTf0888/6+C/f/9uxvD161f7ywinf+FThFf6/88//2xGIr6GKN2e+eOPPzrXUcywza9jSmTByL6wAAAOOUlEQVRK/vkYiQDvRGBpNtLQwu3GBJAFG6OLVVFMrnVuGvjrX/8qjM3575dffkmS5OvXr7/++quep80N83eGwtjcq7fNALSZ2efqhj59+pSm6W+//aa/ENGeP336VFIGTv9i/ta1ShtmJObs/unTJ/31SpIkZmdFFV/YpgwynbMdlQCyAFkQdYDhfAMCyIINoEWsor8aqP4GQUSgJ35zShPTnp6Mf/nlF3Hhbs6d5rL5t+WfmHQfHh7Ex2/fvunL/TRNndO22dCnT5/E1fbvv/+u1zD0hojB/L1l6XLf6T9NUx2M2Pjtt99EnGb133//XRT++OOPZr/04kFpGcAMO0mSX3755du3by8vL6a0SvlrigCyAFnQ1FijnboEkAV1STVjpy+RzZne17TWEKaxnmLti3Jtb06rwrmYWU0/ZqPap7PQbkiLkiRJStOtvpR3ujIL7W29OmIuNogvL8TiRKmK2FX67kP3xY6tVJ2PDRBAFiALGhhmNLEWAWTBWriiG+tJyzdDmxHoad401h7MuVPX0lfwukRsbCML7Ib0lXpJE5gLD+aVvY65FJX50dnZ79+/V0SuV1PMCHVbddZjzADYjkEAWYAsiDGu8LkNAWTBNvTC19WTljnT+5pxzpTag7OWvuA2Z+U0TSsmV3MuN31WNFSxS38RYAZQYa9bFMsMpUt/PfGb3nQVzcfcW6ct7YGN2ASQBciC2GMM/+sSQBasSyyufcAvEZyB6knRnCmblAWbTdW+sHX5jz/+WPq1wtevX/XSiKmxdBUnHwobJoAsQBY0PORobiUBZMFKRI0a6FmzzhK31hDmXXXV057e2yFZoG8qtJno7ojVDt//zc7qKo3mlcY8BJAFyALP0KB4ZwSQBTtD72xYf1le5yFF+it853fnTv96UjRnypavFoiLfudNhb7uOPsuCnWVCht2NUYAWYAsaGyw0VBNAsiCmqCaM9P36ps/EXQ2L274L33dXj3t6XsLTCXRZlmgu+N8jZNeLympHCcuUagdVtiwqzECyAJkQWODjYZqEkAW1ATVnJmeue01czMIPb2ZX5ybtwc6VYXQHPaVd2O3HOpvScyJXPfF7KB4dqGQPvYvKoWl9lbNynTra8u0YbsxAsgCZEFjg42GahJAFtQE1ZzZ9+/f9e/+7R/4iTj0Hfj2BK+nPftrCP0rAPvZf0IWmE82NDusfa4sFAZOe7FLT+R1ZIF+JoFT4giHPqFjhmpuV8RmmrHdDAFkAbKgmZFGK/UJIAvqs2rOUs/6SZL8/PPP5vr5b7/9Zr5iwJxcRXx62kuS5NOnT9rAfA5x6RuENE31Tfti1/fln+6w9qlLzGUJs1BsO+3FrvqyQEMwn734Tf0Jb2ma6u8RSk85TNP0999//+vyTxtXh22asd0MAWQBsqCZkUYr9QkgC+qzatRST4q+u+s/ffpkygUdnJ6S9Q2JJQ/OFQg9uWpjc+VA+9StVM+vTntRt74s0E50SOaGljtpmpo9/fTpk/nyJ/F6iJphm2ZsN0MAWYAsaGak0Up9AsiC+qyathQvEdBfKOhJ8erqqnQ/gRmZnk3FlbRZ/erqyqkkRHV9T4NoyGxC+Cx9YeEsFK60yDADE9sVsqDkXzvRHTc3TFmQpumvv/6qb9XUZp8+fXp4eCgtjVSEbUdLSWwCyAJkQewxhv91CSAL1iW2A/vff//9m/qr+JZdRGbKAlEiqpZmR7HL/r8wXtmKXbENJd+/fxfxfyu+6qkNsRGDkwCyAFngHBgU7pAAsmCH8KM0bcuCKM3gFAIhCCALkAUhxhE+QhJAFoSk2QZfyII2ZIEYahJAFiALag4VzBojUJYFp8u/6+vrxiKgobAEkAVheeItKgFkAbIg6gDD+QYEyrJgAxdUaRUBZEGr0kEw1QSQBciC6hHC3uYJIAuaZx63xd9+++3r16/2A4vitop3CGxEAFmALNho4FApIgFkQUS4uIYABCDgI3BwcJAkCbLAx4fyXRFAFuyKPO1CAAKDJoAsGHT6W9x5ZEGLk0NoEIBAfwkgC/qb2273DFnQ7fwRPQQg0FECyIKOJq73YSMLep9iOggBCLSRALKgjVkhpjRFFjAKIAABCOyAALJgB9BpsgYBZEENSJhAAAIQCE1AyIKDg4MxfxBoE4Hj42Pxwrk0TZPQwx5/EIAABCDgJiBkgX7hJxsQaBsBKQuEZLm/v3cPZEohAAEIQCAEAWRB22ZB4ikRkLJAlPKEjRBHPT4gAAEIeAm8vLxM+INAiwkgC7xHLzsgAIFIBCaTiVihnE6nkZrALQQgsDGB7N4CVgs2xkdFCEBgXQJDfifCuqywh0DzBJAFzTOnRQgMmgCyYNDpp/OtJ4AsaH2KCBAC/SKALOhXPulN3wggC/qWUfoDgZYTQBa0PEGEN3ACyIKBDwC6D4GmCSALmiZOexBYhwCyYB1a2EIAAlsTQBZsjRAHEIhIAFkQES6uIQABmwCywGZCCQTaQwBZ0J5cEAkEBkEAWTCINNPJzhJAFnQ2dQQOgW4SQBZ0M29EPRQCuSxwvtSr+jFk8/l8y1dAfXioIP3R+pb+K5ynafr6+tpm/3d3d9Xx66fFbdaLlW/BeHp62syzqPVRvTr+jwC28f/R/d36/0jQNvF/DL/q+LdxPh6PW3vwnp6eikeorcxgNR/2QgACMQjksqD0voQ6x+10OnXWql9YfeaaTCb1XTktq5Hd3987a9UvjOr/Q6hV+9dXXfUDNi1XvgVDv4HbrFV/+/Lysjp+PT3U92lafsyau/W/5WtvVsoys7MbbFdPum04eKsjrE4ueyEAgUgEkAUbnG/zKtVZ2VJ2IAty0K4tZIGLSl5WPekiC6oPXvZCYLAEMllQ8TKn6kX+xWJRUbfOrsViUYF+Pp/XcVJhU+E8TdPZbFZRt86uqP5fXl6q/U+n0zpB+mxWLmK/v7/76tYpf39/r47/9fW1jh+fTfVSk/iSyFe3TvlK/1u+DW82m1XzqRNkhU37D97qCKvhsBcCEIhEIJMF/EEAAhCAAAQgAAH5YmVAQAACEIAABCAAAWQBYwACEIAABCAAgZwAXyLkLNiCAAQgAAEIDJwAsmDgA4DuQwACEIAABHICyIKcBVsQgAAEIACBgRNAFgx8ANB9CEAAAp0kkD+jY7nVyT60MmhkQSvTQlAQgAAEIFBJAFlQiWfznciCzdlREwIQgAAEdkUAWRCJPLIgEljcQgACEIBARALIgkhwkQWRwOIWAhCAAAQiEkAWRIKLLIgEFrcQgAAEIACB7hFAFnQvZ0QMAQhAAAIQiEQAWRAJLG4hAAEIQAAC3SOALOhezogYAhCAAAQgEIkAsiASWNxCAAIQgAAEukcAWdC9nBExBCAAAQj8UvwDSCgCyIJQJPEDAQhAAALNEeAHipFYIwsigcUtBCAAAQhEJIAsiAQXWRAJLG4hAAEIQCAiAWRBJLjIgkhgcQsBCEAAAhEJIAsiwUUWRAKLWwhAAAIQiEigeMfhLxFbGphrZMHAEk53IQABCEAAAn4CyAI/G/ZAAAIQgAAEBkYAWTCwhNNdCEAAAhCAgJ8AssDPhj0QgAAEIACBgRFAFgws4XQXAhCAQC8IfCv+9aJPregEsqAVaSAICEAAAhBYiwA/UFwLV31jZEF9VlhCAAIQgEBbCCALImUCWRAJLG4hAAEIQCAiAWRBJLjIgkhgcQsBCEAAAhEJIAsiwUUWRAKLWwhAAAIQiEjga/EvYksDc40sGFjC6S4EIAABCEDATwBZ4GfDHghAAAIQgMDACCALBpZwugsBCEAAAhDwE0AW+NmwBwIQgAAEIDAwAsiCgSWc7kIAAhCAAAT8BJAFfjbsgQAEIAABCAyMALJgYAmnuxCAAAR6QYDnFkRKI7IgEljcQgACEIBARALIgkhwkQWRwOIWAhCAAAQiEkAWRIKLLIgEFrcQgAAEIBCRALIgElxkQSSwuIUABCAAgYgEkAWR4CILIoHFLQQgAAEIQKB7BJAF3csZEUMAAhCAAAQiEUAWRAKLWwhAAAIQgED3CCALupczIoYABCAAAQhEIoAsiAQWtxCAAAQgAIHuEUAWdC9nRAwBCEAAAr8U/wASigCyIBRJ/EAAAhCAQHME+IFiJNbIgkhgcQsBCEAAAhEJIAsiwUUWRAKLWwhAAAIQiEgAWRAJLrIgEljcQgACEIBARALIgkhwkQWRwOIWAhCAAAQiEijecfhLxJYG5hpZMLCE010IQAACEICAnwCywM+GPRCAAAQgAIGBEUAWDCzhdBcCEIAABCDgJ4As8LNhDwQgAAEIQGBgBJAFA0s43YUABCDQCwLfin+96FMrOoEsaEUaCAICEIAABNYiwA8U18JV3xhZUJ8VlhCAAAQg0BYCyIJImUAWRAKLWwhAAAIQiEgAWRAJLrIgEljcQgACEIBARALIgkhwkQWRwOIWAhCAAAQiEvha/IvY0sBcIwsGlnC6CwEIQAACEPATQBb42bAHAhCAAAQgMDACyIKBJZzuQgACEIAABPwEkAV+NuyBAAQgAAEIDIwAsmBgCae7EIAABCAAAT8BZIGfDXsgAAEIQAACAyOALBhYwukuBCAAAQhAwE8AWeBnwx4IQAACEIDAwAggCwaWcLoLAQhAAAIQ8BNAFvjZsAcCEIAABCAwMALIgoElnO5CAAIQgAAE/ASQBX427IEABCAAAQgMjACyYGAJp7sQgAAEIAABPwFkgZ8NeyAAAQhAAAIDI4AsGFjC6S4EIAABCEDATwBZ4GfDHghAAAIQgMDACCALBpZwugsBCEAAAhDwE0AW+NmwBwIQgAAEIDAwAsiCgSWc7kIAAhCAAAT8BJAFfjbsgQAEIAABCAyMwP8HBH3DOS0CKH0AAAAASUVORK5CYII=;" vertex="1" parent="1">
          <mxGeometry x="80" y="430" width="690" height="565" as="geometry" />
        </mxCell>
      </root>
    </mxGraphModel>
  </diagram>
</mxfile>
